<svg id="Calque_1" data-name="Calque 1" xmlns="http://www.w3.org/2000/svg" viewBox="0 0 1732.17 898.8"><defs><style>.cls-1{fill:#fff;}.cls-2{fill:#ebfaf3;}.cls-3{fill:#d7f5e7;}.cls-4{fill:#c3f0db;}.cls-5{fill:#afebcf;}.cls-6{fill:#9be6c3;}.cls-7{fill:#87e1b7;}.cls-8{fill:#71dcaa;}.cls-9{fill:#5dd79e;}.cls-10{fill:#49d292;}.cls-11{fill:#35cd86;}.cls-12{fill:#21c87a;}</style></defs><title>bg</title><path class="cls-1" d="M385.83-122.9Q342.78-30.32,402.1-6.81C461.41,16.7,602.45,26.1,661.4,77.1S900.1,88.67,930.84,1.15s86.09-222.42-205.77-222.42q-291.87,0-339.24,98.37Z" transform="translate(37.21 276.47)"/><path class="cls-1" d="M-36.39-1Q-7.23,258.2,196.86,324C400.94,389.85,811,416.18,1058.53,559s687.06,32.4,631.65-212.66S1571.67-276.47,754.46-276.47Q-62.76-276.47-36.39-1Z" transform="translate(37.21 276.47)"/><path class="cls-2" d="M-4.72-11.19Q8.95,234.17,198.56,296.46c189.61,62.3,576.32,87.21,802.89,222.35S1650,549.48,1610.69,317.54,1532-271.87,758.56-271.87q-773.44,0-763.28,260.68Z" transform="translate(37.21 276.47)"/><path class="cls-3" d="M27.75-21.34q.33,231.47,176,290.23C379.46,327.66,743,351.17,949.83,478.66s610.24,28.93,585.06-189.88-44.07-556-773.72-556q-729.66,0-733.42,245.93Z" transform="translate(37.21 276.47)"/><path class="cls-4" d="M61-31.5q-11,217.58,151.25,272.82c162.27,55.24,502.85,77.34,691,197.18s572.2,27.19,559.25-178.48-14.2-522.69-700.07-522.69Q76.54-262.67,61-31.5Z" transform="translate(37.21 276.47)"/><path class="cls-5" d="M94.83-41.66Q74.28,162,223.59,213.75c149.32,51.72,467.12,72.4,637.65,184.59s534.4,25.46,532-167.09,11.29-489.32-630.8-489.32q-642.1,0-667.56,216.41Z" transform="translate(37.21 276.47)"/><path class="cls-6" d="M129.34-51.81q-28.4,189.8,108.4,238c136.79,48.19,432,67.47,585.8,172s496.8,23.72,503.25-155.7,32.72-456-565.59-456q-598.32,0-631.86,201.66Z" transform="translate(37.21 276.47)"/><path class="cls-7" d="M164.43-62Q129.8,114,254.46,158.61C379.12,203.28,651.88,221.14,789.85,318s459.41,22,473.26-144.3,50.34-422.6-504.2-422.6q-554.53,0-594.47,186.9Z" transform="translate(37.21 276.47)"/><path class="cls-8" d="M200.09-72.12Q160.69,89.9,273.61,131C386.53,172.18,637,188.64,759.93,277.88S1182.14,298.13,1202,145s64.37-389.23-446.39-389.23q-510.77,0-555.5,172.15Z" transform="translate(37.21 276.47)"/><path class="cls-9" d="M236.26-82.28q-42.73,148.14,58.8,185.75c101.53,37.61,329.84,52.66,438.55,134.25s385.18,18.52,409.67-121.52,75-355.87-392-355.87q-467,0-515,157.39Z" transform="translate(37.21 276.47)"/><path class="cls-10" d="M272.94-92.44Q228.21,41.81,318.7,75.9c90.49,34.09,296.79,47.72,392,121.66S1059,214.34,1086.89,87.44s82.37-322.51-340.83-322.51q-423.19,0-473.12,142.63Z" transform="translate(37.21 276.47)"/><path class="cls-11" d="M310.1-102.59Q264.68,17.77,344.47,48.33C424.25,78.89,608.66,91.12,691.1,157.41s311.62,15,341.63-98.74,86.62-289.14-292.8-289.14q-379.42,0-429.82,127.88Z" transform="translate(37.21 276.47)"/><path class="cls-12" d="M347.74-112.75Q302.89-6.26,372.28,20.76c69.39,27,232.05,37.85,302.41,96.49s275.08,13.31,306-87.34,87.83-255.78-247.81-255.78q-335.64,0-385.18,113.12Z" transform="translate(37.21 276.47)"/><path class="cls-1" d="M-36.39-1Q-7.23,258.2,196.86,324C400.94,389.85,811,416.18,1058.53,559s687.06,32.4,631.65-212.66S1571.67-276.47,754.46-276.47Q-62.76-276.47-36.39-1Z" transform="translate(37.21 276.47)"/><path class="cls-2" d="M-4.72-11.19Q8.95,234.17,198.56,296.46c189.61,62.3,576.32,87.21,802.89,222.35S1650,549.48,1610.69,317.54,1532-271.87,758.56-271.87q-773.44,0-763.28,260.68Z" transform="translate(37.21 276.47)"/><path class="cls-3" d="M27.75-21.34q.33,231.47,176,290.23C379.46,327.66,743,351.17,949.83,478.66s610.24,28.93,585.06-189.88-44.07-556-773.72-556q-729.66,0-733.42,245.93Z" transform="translate(37.21 276.47)"/><path class="cls-4" d="M61-31.5q-11,217.58,151.25,272.82c162.27,55.24,502.85,77.34,691,197.18s572.2,27.19,559.25-178.48-14.2-522.69-700.07-522.69Q76.54-262.67,61-31.5Z" transform="translate(37.21 276.47)"/><path class="cls-5" d="M94.83-41.66Q74.28,162,223.59,213.75c149.32,51.72,467.12,72.4,637.65,184.59s534.4,25.46,532-167.09,11.29-489.32-630.8-489.32q-642.1,0-667.56,216.41Z" transform="translate(37.21 276.47)"/><path class="cls-6" d="M129.34-51.81q-28.4,189.8,108.4,238c136.79,48.19,432,67.47,585.8,172s496.8,23.72,503.25-155.7,32.72-456-565.59-456q-598.32,0-631.86,201.66Z" transform="translate(37.21 276.47)"/><path class="cls-7" d="M164.43-62Q129.8,114,254.46,158.61C379.12,203.28,651.88,221.14,789.85,318s459.41,22,473.26-144.3,50.34-422.6-504.2-422.6q-554.53,0-594.47,186.9Z" transform="translate(37.21 276.47)"/><path class="cls-8" d="M200.09-72.12Q160.69,89.9,273.61,131C386.53,172.18,637,188.64,759.93,277.88S1182.14,298.13,1202,145s64.37-389.23-446.39-389.23q-510.77,0-555.5,172.15Z" transform="translate(37.21 276.47)"/><path class="cls-9" d="M236.26-82.28q-42.73,148.14,58.8,185.75c101.53,37.61,329.84,52.66,438.55,134.25s385.18,18.52,409.67-121.52,75-355.87-392-355.87q-467,0-515,157.39Z" transform="translate(37.21 276.47)"/><path class="cls-10" d="M272.94-92.44Q228.21,41.81,318.7,75.9c90.49,34.09,296.79,47.72,392,121.66S1059,214.34,1086.89,87.44s82.37-322.51-340.83-322.51q-423.19,0-473.12,142.63Z" transform="translate(37.21 276.47)"/><path class="cls-11" d="M310.1-102.59Q264.68,17.77,344.47,48.33C424.25,78.89,608.66,91.12,691.1,157.41s311.62,15,341.63-98.74,86.62-289.14-292.8-289.14q-379.42,0-429.82,127.88Z" transform="translate(37.21 276.47)"/><path class="cls-12" d="M347.74-112.75Q302.89-6.26,372.28,20.76c69.39,27,232.05,37.85,302.41,96.49s275.08,13.31,306-87.34,87.83-255.78-247.81-255.78q-335.64,0-385.18,113.12Z" transform="translate(37.21 276.47)"/></svg>